<svg width="53" height="53" viewBox="0 0 53 53" fill="none" xmlns="http://www.w3.org/2000/svg">
<ellipse rx="19.018" ry="19.0679" transform="matrix(0.523113 0.852263 -0.854918 0.518763 26.75 26.1)" fill="url(#paint0_linear_685_15927)"/>
<path d="M30.5625 22.5625L33.625 19.5M35.375 17.75L33.625 19.5L35.375 17.75ZM26.9662 26.1588C27.418 26.6045 27.7772 27.1353 28.023 27.7204C28.2689 28.3056 28.3965 28.9336 28.3986 29.5683C28.4008 30.203 28.2773 30.8318 28.0354 31.4186C27.7935 32.0054 27.4379 32.5386 26.9891 32.9874C26.5403 33.4362 26.0072 33.7918 25.4204 34.0337C24.8336 34.2756 24.2047 34.399 23.5701 34.3969C22.9354 34.3948 22.3073 34.2671 21.7222 34.0213C21.137 33.7755 20.6063 33.4163 20.1605 32.9645C19.2839 32.0569 18.7988 30.8412 18.8098 29.5794C18.8207 28.3176 19.3268 27.1105 20.2191 26.2182C21.1114 25.326 22.3184 24.8198 23.5803 24.8089C24.8421 24.7979 26.0577 25.283 26.9654 26.1596L26.9662 26.1588ZM26.9662 26.1588L30.5625 22.5625L26.9662 26.1588ZM30.5625 22.5625L33.1875 25.1875L36.25 22.125L33.625 19.5L30.5625 22.5625Z" stroke="white" stroke-width="2" stroke-linecap="round" stroke-linejoin="round"/>
<defs>
<linearGradient id="paint0_linear_685_15927" x1="-1.90538e-07" y1="16.0459" x2="38.0397" y2="16.5856" gradientUnits="userSpaceOnUse">
<stop stop-color="#252A49"/>
<stop offset="1" stop-color="#3A0C3D"/>
</linearGradient>
</defs>
</svg>
