<svg width="53" height="53" viewBox="0 0 53 53" fill="none" xmlns="http://www.w3.org/2000/svg">
<ellipse rx="19.018" ry="19.0679" transform="matrix(0.523113 0.852263 -0.854918 0.518763 26.75 26.1)" fill="url(#paint0_linear_685_15900)"/>
<g clip-path="url(#clip0_685_15900)">
<path d="M25.8683 28.5744C26.6484 27.9607 27.2178 27.119 27.4973 26.1665C27.7768 25.2141 27.7525 24.1982 27.4277 23.2602C27.103 22.3222 26.4939 21.5087 25.6853 20.933C24.8767 20.3572 23.9087 20.0479 22.9161 20.0479C21.9235 20.0479 20.9555 20.3572 20.1469 20.933C19.3383 21.5087 18.7293 22.3222 18.4045 23.2602C18.0798 24.1982 18.0554 25.2141 18.3349 26.1665C18.6144 27.119 19.1839 27.9607 19.964 28.5744C18.6272 29.11 17.4609 29.9983 16.5892 31.1446C15.7176 32.2909 15.1734 33.6522 15.0146 35.0835C15.0031 35.188 15.0123 35.2937 15.0416 35.3947C15.071 35.4956 15.12 35.5898 15.1857 35.6718C15.3185 35.8374 15.5117 35.9435 15.7228 35.9667C15.9338 35.9899 16.1454 35.9284 16.3111 35.7956C16.4767 35.6628 16.5828 35.4696 16.606 35.2585C16.7807 33.703 17.5224 32.2665 18.6894 31.2232C19.8564 30.18 21.3668 29.6033 22.932 29.6033C24.4973 29.6033 26.0077 30.18 27.1747 31.2232C28.3416 32.2665 29.0833 33.703 29.2581 35.2585C29.2797 35.4541 29.373 35.6346 29.5199 35.7654C29.6669 35.8962 29.8571 35.9679 30.0538 35.9667H30.1413C30.3499 35.9427 30.5405 35.8373 30.6717 35.6733C30.8029 35.5094 30.8639 35.3002 30.8415 35.0914C30.682 33.6561 30.1348 32.2913 29.2587 31.1432C28.3826 29.9952 27.2106 29.1072 25.8683 28.5744V28.5744ZM22.9161 28.0095C22.2866 28.0095 21.6712 27.8228 21.1478 27.4731C20.6244 27.1233 20.2164 26.6262 19.9755 26.0446C19.7346 25.463 19.6716 24.823 19.7944 24.2056C19.9172 23.5882 20.2203 23.0211 20.6655 22.5759C21.1106 22.1308 21.6777 21.8276 22.2952 21.7048C22.9126 21.582 23.5526 21.6451 24.1342 21.886C24.7158 22.1269 25.2129 22.5348 25.5626 23.0583C25.9123 23.5817 26.099 24.1971 26.099 24.8266C26.099 25.6707 25.7637 26.4803 25.1668 27.0772C24.5699 27.6741 23.7603 28.0095 22.9161 28.0095Z" fill="white"/>
</g>
<g clip-path="url(#clip1_685_15900)">
<mask id="mask0_685_15900" style="mask-type:alpha" maskUnits="userSpaceOnUse" x="17" y="15" width="23" height="27">
<path d="M26.0001 15H39.0001V42H26.0001L24.5001 27.4615L23.5001 23.8269L19.0001 22.2692L17.0001 17.0769L26.0001 15Z" fill="#C4C4C4"/>
</mask>
<g mask="url(#mask0_685_15900)">
<path d="M29.3068 23.3802C28.6047 22.8278 28.0922 22.0703 27.8407 21.2131C27.5891 20.3559 27.611 19.4416 27.9033 18.5974C28.1956 17.7532 28.7437 17.0211 29.4715 16.5029C30.1992 15.9847 31.0704 15.7063 31.9637 15.7063C32.8571 15.7063 33.7283 15.9847 34.456 16.5029C35.1838 17.0211 35.7319 17.7532 36.0242 18.5974C36.3165 19.4416 36.3384 20.3559 36.0868 21.2131C35.8353 22.0703 35.3228 22.8278 34.6207 23.3802C35.8238 23.8622 36.8735 24.6617 37.658 25.6933C38.4424 26.725 38.9322 27.9502 39.0751 29.2384C39.0855 29.3324 39.0772 29.4276 39.0508 29.5184C39.0243 29.6093 38.9803 29.694 38.9211 29.7678C38.8016 29.9169 38.6277 30.0124 38.4378 30.0333C38.2478 30.0542 38.0574 29.9988 37.9083 29.8792C37.7592 29.7597 37.6637 29.5858 37.6428 29.3959C37.4856 27.996 36.8181 26.703 35.7678 25.7642C34.7175 24.8253 33.3582 24.3062 31.9494 24.3062C30.5407 24.3062 29.1813 24.8253 28.1311 25.7642C27.0808 26.703 26.4133 27.996 26.256 29.3959C26.2365 29.5719 26.1526 29.7344 26.0203 29.8521C25.8881 29.9698 25.7169 30.0344 25.5399 30.0333H25.4611C25.2734 30.0117 25.1018 29.9168 24.9837 29.7692C24.8657 29.6216 24.8107 29.4334 24.8309 29.2455C24.9745 27.9537 25.4669 26.7254 26.2554 25.6921C27.0439 24.6589 28.0987 23.8597 29.3068 23.3802ZM31.9637 22.8718C32.5303 22.8718 33.0842 22.7038 33.5552 22.389C34.0263 22.0742 34.3935 21.6268 34.6103 21.1034C34.8271 20.58 34.8839 20.004 34.7733 19.4483C34.6628 18.8926 34.39 18.3822 33.9893 17.9816C33.5887 17.5809 33.0783 17.3081 32.5226 17.1976C31.9669 17.0871 31.3909 17.1438 30.8675 17.3606C30.3441 17.5774 29.8967 17.9446 29.5819 18.4157C29.2671 18.8867 29.0991 19.4406 29.0991 20.0072C29.0991 20.7669 29.4009 21.4955 29.9382 22.0327C30.4754 22.57 31.204 22.8718 31.9637 22.8718Z" fill="white"/>
</g>
</g>
<defs>
<linearGradient id="paint0_linear_685_15900" x1="-1.90538e-07" y1="16.0459" x2="38.0397" y2="16.5856" gradientUnits="userSpaceOnUse">
<stop stop-color="#252A49"/>
<stop offset="1" stop-color="#3A0C3D"/>
</linearGradient>
<clipPath id="clip0_685_15900">
<rect width="19.0974" height="18.9883" fill="white" transform="translate(13.5048 18.3662)"/>
</clipPath>
<clipPath id="clip1_685_15900">
<rect width="17.1877" height="17.1877" fill="white" transform="matrix(-1 0 0 1 40.5576 14.278)"/>
</clipPath>
</defs>
</svg>
