<svg width="53" height="53" viewBox="0 0 53 53" fill="none" xmlns="http://www.w3.org/2000/svg">
<ellipse rx="19.018" ry="19.0679" transform="matrix(0.523113 0.852263 -0.854918 0.518763 26.75 26.1)" fill="url(#paint0_linear_685_15918)"/>
<path d="M23.6667 25.1666C23.5019 25.1666 23.3407 25.2155 23.2037 25.3071C23.0667 25.3986 22.9599 25.5288 22.8968 25.6811C22.8337 25.8333 22.8172 26.0009 22.8494 26.1625C22.8815 26.3242 22.9609 26.4727 23.0774 26.5892C23.194 26.7058 23.3425 26.7851 23.5041 26.8173C23.6658 26.8494 23.8333 26.8329 23.9856 26.7699C24.1379 26.7068 24.268 26.6 24.3596 26.4629C24.4511 26.3259 24.5 26.1648 24.5 26C24.5 25.7789 24.4122 25.567 24.2559 25.4107C24.0997 25.2544 23.8877 25.1666 23.6667 25.1666ZM27 25.1666C26.8352 25.1666 26.6741 25.2155 26.537 25.3071C26.4 25.3986 26.2932 25.5288 26.2301 25.6811C26.167 25.8333 26.1505 26.0009 26.1827 26.1625C26.2148 26.3242 26.2942 26.4727 26.4108 26.5892C26.5273 26.7058 26.6758 26.7851 26.8374 26.8173C26.9991 26.8494 27.1666 26.8329 27.3189 26.7699C27.4712 26.7068 27.6013 26.6 27.6929 26.4629C27.7845 26.3259 27.8333 26.1648 27.8333 26C27.8333 25.7789 27.7455 25.567 27.5893 25.4107C27.433 25.2544 27.221 25.1666 27 25.1666ZM30.3333 25.1666C30.1685 25.1666 30.0074 25.2155 29.8704 25.3071C29.7333 25.3986 29.6265 25.5288 29.5634 25.6811C29.5004 25.8333 29.4839 26.0009 29.516 26.1625C29.5482 26.3242 29.6275 26.4727 29.7441 26.5892C29.8606 26.7058 30.0091 26.7851 30.1708 26.8173C30.3324 26.8494 30.5 26.8329 30.6522 26.7699C30.8045 26.7068 30.9347 26.6 31.0262 26.4629C31.1178 26.3259 31.1667 26.1648 31.1667 26C31.1667 25.7789 31.0789 25.567 30.9226 25.4107C30.7663 25.2544 30.5544 25.1666 30.3333 25.1666ZM27 17.6666C25.9057 17.6666 24.822 17.8822 23.811 18.301C22.7999 18.7198 21.8813 19.3336 21.1075 20.1074C19.5447 21.6702 18.6667 23.7898 18.6667 26C18.6594 27.9242 19.3257 29.7904 20.55 31.275L18.8833 32.9416C18.7677 33.0588 18.6894 33.2076 18.6582 33.3693C18.6271 33.5309 18.6445 33.6982 18.7083 33.85C18.7776 33.9999 18.8898 34.1259 19.0307 34.212C19.1717 34.298 19.335 34.3402 19.5 34.3333H27C29.2101 34.3333 31.3298 33.4553 32.8926 31.8925C34.4554 30.3297 35.3333 28.2101 35.3333 26C35.3333 23.7898 34.4554 21.6702 32.8926 20.1074C31.3298 18.5446 29.2101 17.6666 27 17.6666ZM27 32.6666H21.5083L22.2833 31.8916C22.3621 31.8144 22.4247 31.7224 22.4676 31.6208C22.5106 31.5193 22.5329 31.4102 22.5333 31.3C22.5302 31.0802 22.4404 30.8705 22.2833 30.7166C21.1922 29.6267 20.5127 28.1921 20.3606 26.6573C20.2085 25.1225 20.5933 23.5825 21.4494 22.2996C22.3054 21.0167 23.5798 20.0703 25.0554 19.6216C26.531 19.1729 28.1166 19.2498 29.5419 19.8391C30.9672 20.4283 32.1441 21.4935 32.872 22.8532C33.6 24.2129 33.8341 25.7829 33.5343 27.2958C33.2345 28.8087 32.4194 30.1708 31.228 31.1502C30.0365 32.1295 28.5423 32.6654 27 32.6666Z" fill="white"/>
<defs>
<linearGradient id="paint0_linear_685_15918" x1="-1.90538e-07" y1="16.0459" x2="38.0397" y2="16.5856" gradientUnits="userSpaceOnUse">
<stop stop-color="#252A49"/>
<stop offset="1" stop-color="#3A0C3D"/>
</linearGradient>
</defs>
</svg>
